<svg width="810" height="879" viewBox="0 0 810 879" fill="none" xmlns="http://www.w3.org/2000/svg">
<path d="M222.826 3H348.043" stroke="#00324D" stroke-width="6" stroke-linecap="round"/>
<path d="M225.957 166L348.044 166" stroke="#00324D" stroke-width="6" stroke-linecap="round"/>
<path d="M226 690H754" stroke="#00324D" stroke-width="6" stroke-linecap="round"/>
<path d="M339 805H761" stroke="#00324D" stroke-width="6" stroke-linecap="round"/>
<path d="M348.043 166L348.043 2.99999" stroke="#00324D" stroke-width="6" stroke-linecap="round"/>
<path d="M3.69568 81L0.695679 81L0.695679 87L3.69568 87L3.69568 81ZM249.435 87C251.092 87 252.435 85.6569 252.435 84C252.435 82.3431 251.092 81 249.435 81L249.435 87ZM3.69568 87L249.435 87L249.435 81L3.69568 81L3.69568 87Z" fill="#00324D"/>
<path d="M225.957 690L225.957 166" stroke="#00324D" stroke-width="6" stroke-linecap="round"/>
<path d="M202.443 45L251 85.375" stroke="#00324D" stroke-width="6" stroke-linecap="round"/>
<path d="M199.312 123L247.87 87.375" stroke="#00324D" stroke-width="6" stroke-linecap="round"/>
<path d="M754 689.806C867.74 747.509 760.518 803.458 760.608 805.034" stroke="#00324D" stroke-width="6" stroke-linecap="round"/>
<path d="M336 805C336 844.137 303.393 876 263 876C222.607 876 190 844.137 190 805C190 765.863 222.607 734 263 734C303.393 734 336 765.863 336 805Z" stroke="#00324D" stroke-width="6"/>
<path d="M229 807.146L257.644 832.835" stroke="#00324D" stroke-width="6" stroke-linecap="round"/>
<path d="M258.229 833.292L311.945 777" stroke="#00324D" stroke-width="6" stroke-linecap="round"/>
<rect x="329" y="705" width="453" height="82" rx="41" fill="#00324D"/>
<path d="M448.119 756H443.543L441.783 750.848H433.687L431.927 756H427.415L435.127 734.88H440.407L448.119 756ZM434.679 747.584H440.791L437.719 738.368L434.679 747.584ZM459.412 734.88C462.719 734.88 465.279 735.797 467.092 737.632C468.905 739.445 469.812 742.048 469.812 745.44C469.812 748.811 468.905 751.413 467.092 753.248C465.279 755.083 462.719 756 459.412 756H451.252V734.88H459.412ZM459.188 752.48C461.193 752.48 462.697 751.883 463.7 750.688C464.724 749.472 465.236 747.723 465.236 745.44C465.236 743.157 464.724 741.419 463.7 740.224C462.697 739.008 461.193 738.4 459.188 738.4H455.668V752.48H459.188ZM481.839 734.56C483.759 734.56 485.444 734.891 486.895 735.552C488.346 736.213 489.583 737.195 490.607 738.496L488.143 741.344C487.268 740.235 486.308 739.424 485.263 738.912C484.239 738.379 483.044 738.112 481.679 738.112C480.783 738.112 480.036 738.229 479.439 738.464C478.863 738.699 478.436 739.008 478.159 739.392C477.903 739.776 477.775 740.203 477.775 740.672C477.775 741.248 477.999 741.739 478.447 742.144C478.895 742.528 479.663 742.848 480.751 743.104L484.687 744C486.778 744.469 488.271 745.173 489.167 746.112C490.084 747.029 490.543 748.224 490.543 749.696C490.543 751.083 490.18 752.277 489.455 753.28C488.73 754.261 487.716 755.019 486.415 755.552C485.114 756.064 483.62 756.32 481.935 756.32C480.463 756.32 479.108 756.149 477.871 755.808C476.655 755.445 475.567 754.955 474.607 754.336C473.647 753.717 472.847 753.003 472.207 752.192L474.703 749.216C475.194 749.899 475.802 750.507 476.527 751.04C477.252 751.573 478.074 752 478.991 752.32C479.93 752.619 480.911 752.768 481.935 752.768C482.81 752.768 483.546 752.672 484.143 752.48C484.762 752.267 485.22 751.979 485.519 751.616C485.839 751.232 485.999 750.773 485.999 750.24C485.999 749.685 485.807 749.216 485.423 748.832C485.06 748.427 484.378 748.117 483.375 747.904L479.087 746.944C477.85 746.645 476.783 746.261 475.887 745.792C475.012 745.301 474.34 744.683 473.871 743.936C473.423 743.168 473.199 742.261 473.199 741.216C473.199 739.957 473.54 738.827 474.223 737.824C474.906 736.821 475.887 736.032 477.167 735.456C478.468 734.859 480.026 734.56 481.839 734.56ZM503.841 734.56C505.931 734.56 507.734 734.997 509.249 735.872C510.763 736.747 511.926 737.995 512.737 739.616C513.569 741.237 513.985 743.179 513.985 745.44C513.985 747.701 513.569 749.643 512.737 751.264C511.926 752.885 510.763 754.133 509.249 755.008C507.734 755.883 505.931 756.32 503.841 756.32C501.75 756.32 499.937 755.883 498.401 755.008C496.886 754.133 495.713 752.885 494.881 751.264C494.07 749.643 493.665 747.701 493.665 745.44C493.665 743.179 494.07 741.237 494.881 739.616C495.713 737.995 496.886 736.747 498.401 735.872C499.937 734.997 501.75 734.56 503.841 734.56ZM503.841 738.176C502.646 738.176 501.633 738.453 500.801 739.008C499.969 739.563 499.329 740.384 498.881 741.472C498.454 742.539 498.241 743.861 498.241 745.44C498.241 746.997 498.454 748.32 498.881 749.408C499.329 750.496 499.969 751.317 500.801 751.872C501.633 752.427 502.646 752.704 503.841 752.704C505.014 752.704 506.017 752.427 506.849 751.872C507.681 751.317 508.31 750.496 508.737 749.408C509.185 748.32 509.409 746.997 509.409 745.44C509.409 743.861 509.185 742.539 508.737 741.472C508.31 740.384 507.681 739.563 506.849 739.008C506.017 738.453 505.014 738.176 503.841 738.176ZM520.488 739.68C521.341 739.68 522.013 739.915 522.504 740.384C523.016 740.853 523.272 741.483 523.272 742.272C523.272 743.083 523.016 743.723 522.504 744.192C522.013 744.64 521.341 744.864 520.488 744.864C519.634 744.864 518.952 744.64 518.44 744.192C517.949 743.723 517.704 743.083 517.704 742.272C517.704 741.483 517.949 740.853 518.44 740.384C518.952 739.915 519.634 739.68 520.488 739.68ZM520.488 751.104C521.341 751.104 522.013 751.339 522.504 751.808C523.016 752.277 523.272 752.907 523.272 753.696C523.272 754.507 523.016 755.147 522.504 755.616C522.013 756.064 521.341 756.288 520.488 756.288C519.634 756.288 518.952 756.064 518.44 755.616C517.949 755.147 517.704 754.507 517.704 753.696C517.704 752.907 517.949 752.277 518.44 751.808C518.952 751.339 519.634 751.104 520.488 751.104ZM537.393 756V753.024C539.313 751.723 540.934 750.549 542.257 749.504C543.601 748.437 544.678 747.456 545.489 746.56C546.321 745.643 546.918 744.779 547.281 743.968C547.665 743.157 547.857 742.347 547.857 741.536C547.857 740.555 547.558 739.755 546.961 739.136C546.363 738.496 545.521 738.176 544.433 738.176C543.238 738.176 542.299 738.581 541.617 739.392C540.955 740.203 540.593 741.355 540.529 742.848L536.721 741.408C536.827 739.957 537.211 738.731 537.873 737.728C538.555 736.704 539.473 735.925 540.625 735.392C541.798 734.837 543.142 734.56 544.657 734.56C545.958 734.56 547.078 734.741 548.017 735.104C548.977 735.467 549.766 735.968 550.385 736.608C551.025 737.227 551.505 737.941 551.825 738.752C552.145 739.563 552.305 740.405 552.305 741.28C552.305 742.645 551.963 743.936 551.281 745.152C550.619 746.368 549.595 747.573 548.209 748.768C546.822 749.963 545.062 751.221 542.929 752.544V752.576C543.249 752.555 543.633 752.533 544.081 752.512C544.55 752.491 545.03 752.48 545.521 752.48C546.011 752.459 546.438 752.448 546.801 752.448H552.625V756H537.393ZM563.371 756.32C561.515 756.32 559.947 755.936 558.667 755.168C557.408 754.4 556.373 753.227 555.563 751.648L559.531 749.664C559.808 750.603 560.245 751.36 560.843 751.936C561.44 752.512 562.315 752.8 563.467 752.8C564.256 752.8 564.928 752.661 565.483 752.384C566.037 752.107 566.464 751.701 566.763 751.168C567.083 750.635 567.243 749.984 567.243 749.216C567.243 748.448 567.093 747.808 566.795 747.296C566.517 746.763 566.112 746.368 565.579 746.112C565.045 745.835 564.373 745.696 563.563 745.696C563.008 745.696 562.485 745.749 561.995 745.856C561.525 745.963 561.099 746.133 560.715 746.368C560.331 746.581 559.989 746.869 559.691 747.232L556.235 746.592L557.547 734.88H570.315V738.432H560.875L560.235 743.584L560.139 744H560.203C560.651 743.488 561.259 743.093 562.027 742.816C562.816 742.539 563.712 742.4 564.715 742.4C566.101 742.4 567.285 742.677 568.267 743.232C569.248 743.787 570.005 744.565 570.539 745.568C571.072 746.549 571.339 747.68 571.339 748.96C571.339 750.176 571.136 751.253 570.731 752.192C570.325 753.109 569.749 753.877 569.003 754.496C568.277 755.093 567.435 755.552 566.475 755.872C565.515 756.171 564.48 756.32 563.371 756.32ZM583.564 734.56C584.694 734.56 585.718 734.72 586.636 735.04C587.553 735.339 588.353 735.829 589.036 736.512C589.74 737.173 590.284 738.059 590.668 739.168L586.956 740.896C586.7 740.064 586.273 739.413 585.676 738.944C585.1 738.453 584.3 738.208 583.276 738.208C582.55 738.208 581.9 738.379 581.324 738.72C580.769 739.061 580.289 739.552 579.884 740.192C579.478 740.832 579.169 741.6 578.956 742.496C578.742 743.371 578.636 744.341 578.636 745.408C578.636 745.472 578.636 745.547 578.636 745.632C578.636 745.696 578.636 745.803 578.636 745.952L578.732 746.08C578.966 745.333 579.372 744.715 579.948 744.224C580.545 743.733 581.206 743.371 581.932 743.136C582.678 742.901 583.414 742.784 584.14 742.784C585.484 742.784 586.668 743.051 587.692 743.584C588.737 744.096 589.548 744.843 590.124 745.824C590.721 746.805 591.02 747.979 591.02 749.344C591.02 750.752 590.7 751.989 590.06 753.056C589.441 754.101 588.556 754.912 587.404 755.488C586.273 756.043 584.918 756.32 583.34 756.32C581.548 756.32 579.99 755.893 578.668 755.04C577.366 754.187 576.353 752.96 575.628 751.36C574.924 749.76 574.572 747.829 574.572 745.568C574.572 743.115 574.966 741.077 575.756 739.456C576.545 737.813 577.622 736.587 578.988 735.776C580.353 734.965 581.878 734.56 583.564 734.56ZM583.276 746.016C582.572 746.016 581.953 746.165 581.42 746.464C580.886 746.741 580.46 747.136 580.14 747.648C579.82 748.139 579.66 748.715 579.66 749.376C579.66 750.037 579.82 750.624 580.14 751.136C580.481 751.648 580.918 752.053 581.452 752.352C582.006 752.651 582.614 752.8 583.276 752.8C584.406 752.8 585.281 752.501 585.9 751.904C586.54 751.307 586.86 750.464 586.86 749.376C586.86 748.693 586.721 748.096 586.444 747.584C586.166 747.072 585.761 746.688 585.228 746.432C584.694 746.155 584.044 746.016 583.276 746.016ZM602.645 756.32C599.935 756.32 597.845 755.403 596.373 753.568C594.922 751.733 594.197 749.024 594.197 745.44C594.197 741.856 594.922 739.147 596.373 737.312C597.845 735.477 599.935 734.56 602.645 734.56C605.354 734.56 607.434 735.477 608.885 737.312C610.357 739.147 611.093 741.856 611.093 745.44C611.093 749.024 610.357 751.733 608.885 753.568C607.434 755.403 605.354 756.32 602.645 756.32ZM602.645 752.768C603.562 752.768 604.309 752.512 604.885 752C605.482 751.467 605.93 750.667 606.229 749.6C606.527 748.512 606.677 747.125 606.677 745.44C606.677 743.755 606.527 742.379 606.229 741.312C605.93 740.224 605.482 739.424 604.885 738.912C604.309 738.379 603.562 738.112 602.645 738.112C601.727 738.112 600.97 738.379 600.373 738.912C599.775 739.424 599.327 740.224 599.029 741.312C598.751 742.379 598.613 743.755 598.613 745.44C598.613 747.125 598.751 748.512 599.029 749.6C599.327 750.667 599.775 751.467 600.373 752C600.97 752.512 601.727 752.768 602.645 752.768ZM624.525 756V751.04H614.221V748.16C614.327 747.947 614.477 747.691 614.669 747.392C614.882 747.072 615.117 746.709 615.373 746.304L623.245 734.88H628.525V747.84H631.949V751.04H628.525V756H624.525ZM617.997 747.84H624.557V740.864C624.557 740.416 624.567 739.936 624.589 739.424C624.61 738.912 624.631 738.411 624.653 737.92H624.589C624.354 738.389 624.066 738.901 623.725 739.456C623.405 739.989 623.106 740.469 622.829 740.896L618.413 747.232C618.349 747.339 618.274 747.445 618.189 747.552C618.125 747.637 618.061 747.733 617.997 747.84ZM638.71 756V742.624C638.71 742.133 638.71 741.632 638.71 741.12C638.732 740.587 638.753 740.043 638.774 739.488C638.049 740.149 637.238 740.725 636.342 741.216C635.446 741.707 634.529 742.048 633.59 742.24L633.014 738.528C633.505 738.485 634.049 738.347 634.646 738.112C635.265 737.856 635.884 737.557 636.502 737.216C637.142 736.853 637.718 736.48 638.23 736.096C638.764 735.691 639.169 735.285 639.446 734.88H643.03V756H638.71ZM657.431 756V751.04H647.127V748.16C647.233 747.947 647.383 747.691 647.575 747.392C647.788 747.072 648.023 746.709 648.279 746.304L656.151 734.88H661.431V747.84H664.855V751.04H661.431V756H657.431ZM650.903 747.84H657.463V740.864C657.463 740.416 657.473 739.936 657.495 739.424C657.516 738.912 657.537 738.411 657.559 737.92H657.495C657.26 738.389 656.972 738.901 656.631 739.456C656.311 739.989 656.012 740.469 655.735 740.896L651.319 747.232C651.255 747.339 651.18 747.445 651.095 747.552C651.031 747.637 650.967 747.733 650.903 747.84Z" fill="white"/>
</svg>
