<svg width="782" height="849" viewBox="0 0 782 849" fill="none" xmlns="http://www.w3.org/2000/svg">
<path d="M143 3H223" stroke="#00324D" stroke-width="6" stroke-linecap="round"/>
<path d="M145 166L223 166" stroke="white" stroke-width="6" stroke-linecap="round"/>
<path d="M145 166L223 166" stroke="#00324D" stroke-width="6" stroke-linecap="round"/>
<path d="M145 690H748" stroke="#00324D" stroke-width="6" stroke-linecap="round"/>
<path d="M308 787L747 787" stroke="#00324D" stroke-width="6" stroke-linecap="round"/>
<path d="M223 166L223 2.99999" stroke="#00324D" stroke-width="6" stroke-linecap="round"/>
<path d="M3 81L-2.08316e-10 81L2.08316e-10 87L3 87L3 81ZM160 87C161.657 87 163 85.6569 163 84C163 82.3431 161.657 81 160 81L160 87ZM3 87L160 87L160 81L3 81L3 87Z" fill="#00324D"/>
<path d="M145 690L145 166" stroke="#00324D" stroke-width="6" stroke-linecap="round"/>
<path d="M129.977 45L161 85.375" stroke="#00324D" stroke-width="6" stroke-linecap="round"/>
<path d="M127.977 123L159 87.375" stroke="#00324D" stroke-width="6" stroke-linecap="round"/>
<path d="M748 690C817.75 743.889 748 785.674 748 787" stroke="#00324D" stroke-width="6" stroke-linecap="round"/>
<path d="M306 786.5C306 819.338 279.16 846 246 846C212.84 846 186 819.338 186 786.5C186 753.662 212.84 727 246 727C279.16 727 306 753.662 306 786.5Z" stroke="#00324D" stroke-width="6"/>
<path d="M218 787L239 807" stroke="#00324D" stroke-width="6" stroke-linecap="round"/>
<path d="M238.805 806.955L279.805 762.955" stroke="#00324D" stroke-width="6" stroke-linecap="round"/>
</svg>
